<svg width="22" height="22" viewBox="0 0 22 22" fill="none" xmlns="http://www.w3.org/2000/svg">
<path d="M21.3894 0.793481C21.3808 0.752023 21.3606 0.713865 21.3312 0.683479C21.3017 0.653093 21.2642 0.631738 21.223 0.621918C18.4775 -0.049332 12.1339 2.3427 8.69705 5.77817C8.08406 6.38621 7.52523 7.04652 7.0269 7.75161C5.96705 7.65786 4.90721 7.73614 4.00393 8.12989C1.45534 9.25161 0.713304 12.1785 0.506585 13.4375C0.49486 13.5065 0.499283 13.5772 0.519506 13.6441C0.539729 13.711 0.575201 13.7723 0.623132 13.8232C0.671063 13.8741 0.730146 13.9131 0.795734 13.9373C0.861322 13.9615 0.931626 13.9701 1.00112 13.9625L5.09377 13.5111C5.0967 13.8197 5.11531 14.1279 5.14955 14.4346C5.17015 14.6475 5.26468 14.8466 5.41674 14.9971L7.00159 16.5782C7.15224 16.73 7.35119 16.8245 7.56409 16.8454C7.86904 16.8795 8.17553 16.8981 8.48237 16.9011L8.0333 20.9886C8.02581 21.0581 8.03452 21.1284 8.05873 21.1939C8.08295 21.2594 8.12202 21.3185 8.17288 21.3664C8.22374 21.4143 8.28501 21.4498 8.35188 21.47C8.41875 21.4903 8.48941 21.4948 8.5583 21.4832C9.81502 21.2816 12.7471 20.5396 13.8622 17.991C14.256 17.0877 14.3366 16.033 14.2456 14.9783C14.9524 14.48 15.6145 13.921 16.2242 13.3077C19.6719 9.87739 22.0503 3.67536 21.3894 0.793481ZM12.7846 9.21551C12.4697 8.9009 12.2553 8.49999 12.1684 8.0635C12.0814 7.627 12.1259 7.17452 12.2962 6.7633C12.4664 6.35208 12.7548 6.0006 13.1248 5.7533C13.4949 5.506 13.93 5.374 14.375 5.374C14.8201 5.374 15.2552 5.506 15.6252 5.7533C15.9953 6.0006 16.2836 6.35208 16.4539 6.7633C16.6241 7.17452 16.6686 7.627 16.5817 8.0635C16.4947 8.49999 16.2803 8.9009 15.9655 9.21551C15.7567 9.42457 15.5088 9.59042 15.2359 9.70357C14.963 9.81673 14.6705 9.87497 14.375 9.87497C14.0796 9.87497 13.787 9.81673 13.5141 9.70357C13.2412 9.59042 12.9933 9.42457 12.7846 9.21551Z" fill="#103A62"/>
</svg>
