<svg width="18" height="19" viewBox="0 0 18 19" fill="none" xmlns="http://www.w3.org/2000/svg">
<path d="M3.62 8.53841C5.06 11.3684 7.38 13.6784 10.21 15.1284L12.41 12.9284C12.68 12.6584 13.08 12.5684 13.43 12.6884C14.55 13.0584 15.76 13.2584 17 13.2584C17.55 13.2584 18 13.7084 18 14.2584V17.7484C18 18.2984 17.55 18.7484 17 18.7484C7.61 18.7484 0 11.1384 0 1.74841C0 1.19841 0.45 0.748413 1 0.748413H4.5C5.05 0.748413 5.5 1.19841 5.5 1.74841C5.5 2.99841 5.7 4.19841 6.07 5.31841C6.18 5.66841 6.1 6.05841 5.82 6.33841L3.62 8.53841Z" fill="#EFEFEF"/>
</svg>
