<svg width="22" height="22" viewBox="0 0 22 22" fill="none" xmlns="http://www.w3.org/2000/svg">
<path d="M21.4503 16.3503C21.2056 16.0897 20.3417 15.3191 18.7536 14.2995C17.1538 13.2711 15.9739 12.6298 15.6355 12.4803C15.6056 12.4671 15.5728 12.4622 15.5404 12.4663C15.508 12.4703 15.4774 12.4831 15.4517 12.5033C14.9066 12.9284 13.9888 13.7094 13.9395 13.7516C13.6217 14.0239 13.6217 14.0239 13.3616 13.9391C12.9041 13.7891 11.4828 13.0344 10.2444 11.7931C9.00594 10.5519 8.21235 9.09547 8.06235 8.63844C7.97657 8.37781 7.97657 8.37782 8.24985 8.06C8.29203 8.01078 9.07344 7.09297 9.4986 6.54828C9.51876 6.52263 9.53155 6.49197 9.5356 6.4596C9.53965 6.42722 9.5348 6.39436 9.52157 6.36453C9.37204 6.02563 8.73078 4.84625 7.70235 3.24641C6.68141 1.65875 5.91172 0.794846 5.6511 0.550159C5.62718 0.52759 5.59762 0.51189 5.56553 0.504713C5.53344 0.497535 5.5 0.499147 5.46875 0.509378C4.55773 0.822449 3.67872 1.22192 2.84375 1.70235C2.0377 2.17092 1.27458 2.70973 0.563284 3.3125C0.538454 3.33361 0.519839 3.36108 0.509434 3.39197C0.499029 3.42285 0.497227 3.45598 0.504222 3.48781C0.60219 3.94438 1.07047 5.85032 2.5236 8.49032C4.00625 11.1847 5.03375 12.5652 7.2111 14.735C9.38844 16.9048 10.8125 17.9942 13.5097 19.4769C16.1497 20.93 18.0566 21.3988 18.5122 21.4958C18.5441 21.5027 18.5773 21.5009 18.6082 21.4905C18.6392 21.4801 18.6667 21.4615 18.688 21.4367C19.2906 20.7254 19.8293 19.9623 20.2977 19.1563C20.778 18.3212 21.1775 17.4422 21.4906 16.5313C21.5006 16.5002 21.5022 16.4671 21.4951 16.4353C21.488 16.4035 21.4726 16.3741 21.4503 16.3503Z" fill="#103A62"/>
</svg>
