<svg width="17" height="16" viewBox="0 0 17 16" fill="none" xmlns="http://www.w3.org/2000/svg">
<path d="M6 0H10V4H6V0ZM0 12H4V16H0V12ZM0 6H4V10H0V6ZM0 0H4V4H0V0ZM10 8.42V6H6V10H8.42L10 8.42ZM16.88 7.29L15.71 6.12C15.6719 6.0819 15.6267 6.05168 15.577 6.03106C15.5272 6.01044 15.4739 5.99983 15.42 5.99983C15.3661 5.99983 15.3128 6.01044 15.263 6.03106C15.2133 6.05168 15.1681 6.0819 15.13 6.12L14.25 7L16 8.75L16.88 7.87C16.9181 7.83192 16.9483 7.78672 16.9689 7.73696C16.9896 7.6872 17.0002 7.63386 17.0002 7.58C17.0002 7.52614 16.9896 7.4728 16.9689 7.42304C16.9483 7.37328 16.9181 7.32807 16.88 7.29ZM7 14.25V16H8.75L15.42 9.33L13.67 7.58L7 14.25ZM12 0H16V4H12V0Z" fill="#103A62"/>
</svg>
